<svg width="18" height="18" viewBox="0 0 18 18" fill="none" xmlns="http://www.w3.org/2000/svg">
<g clip-path="url(#clip0)">
<path d="M11.2299 6.69345L11.2299 6.69339C11.8853 6.03806 12.2071 5.26117 12.2071 4.33519C12.2071 3.40975 11.8854 2.63274 11.2299 1.9771C11.2299 1.97704 11.2298 1.97698 11.2297 1.97693M11.2299 6.69345L11.2297 1.97693M11.2299 6.69345C10.5746 7.34884 9.79748 7.67065 8.87159 7.67065M11.2299 6.69345L8.87159 7.67065M11.2297 1.97693C10.5743 1.32173 9.79722 1 8.87159 1C7.94561 1 7.16873 1.32178 6.51339 1.97712C5.858 2.63252 5.53613 3.40956 5.53613 4.33519C5.53613 5.26109 5.85799 6.03807 6.51341 6.69341L11.2297 1.97693ZM8.87159 7.67065C7.94615 7.67065 7.16905 7.34882 6.51347 6.69347L8.87159 7.67065Z" stroke="#304B57" stroke-width="2"/>
<path d="M15.46 13.9111L15.46 13.9103C15.4386 13.6012 15.3945 13.2548 15.3275 12.8804L15.46 13.9111ZM15.46 13.9111C15.4824 14.2293 15.4939 14.5636 15.494 14.9043L15.46 13.9111ZM15.0796 11.8652L15.0796 11.865C14.9851 11.5697 14.8552 11.274 14.6926 10.9879L15.5619 10.4937L14.6926 10.9879C14.5322 10.7058 14.3518 10.4742 14.1619 10.2926L14.1617 10.2925C13.9843 10.1227 13.7548 9.97416 13.4669 9.85999L15.0796 11.8652ZM15.0796 11.8652C15.1772 12.17 15.2612 12.5114 15.3274 12.8801L15.0796 11.8652ZM11.6346 10.3096L11.6335 10.3103C11.3007 10.5224 10.8947 10.6945 10.4543 10.8368L11.6346 10.3096ZM11.6346 10.3096C11.9123 10.1322 12.162 9.97114 12.3764 9.83132L11.8302 8.99371L12.3758 9.83173C12.4511 9.7827 12.5084 9.74765 12.5529 9.72236C12.5734 9.71075 12.5897 9.70205 12.6023 9.6956M11.6346 10.3096L12.6023 9.6956M6.33619 10.3101L6.33552 10.3097C6.06054 10.134 5.81081 9.97306 5.5934 9.83143L5.59321 9.8313C5.51807 9.78232 5.4609 9.74732 5.41648 9.72208C5.39617 9.71055 5.37999 9.70189 5.36741 9.69546C5.04049 9.70258 4.75223 9.7614 4.50337 9.85997L4.50321 9.86003C4.21568 9.97387 3.98598 10.1224 3.80822 10.2924L6.33619 10.3101ZM6.33619 10.3101C6.6691 10.5225 7.07542 10.6947 7.5155 10.8369L6.33619 10.3101ZM3.27762 10.9876L3.27756 10.9877C3.11499 11.2739 2.9851 11.5694 2.89047 11.865L3.27762 10.9876ZM3.27762 10.9876C3.43735 10.7063 3.61782 10.4747 3.80802 10.2926L3.27762 10.9876ZM2.51016 13.9105L2.51014 13.9107C2.48792 14.2311 2.47656 14.5654 2.47656 14.9045C2.47656 15.6166 2.69425 16.099 3.05393 16.4416C3.4192 16.789 3.92707 17.0001 4.65174 17.0001H13.3188C14.0437 17.0001 14.5514 16.789 14.9168 16.4413L14.9168 16.4413C15.2761 16.0994 15.4939 15.6173 15.494 14.9047L2.51016 13.9105ZM2.51016 13.9105C2.53159 13.6006 2.57563 13.2541 2.64266 12.8804L2.51016 13.9105ZM12.6023 9.6956C12.9293 9.7027 13.2177 9.76144 13.4667 9.85993L12.6023 9.6956ZM8.98486 11.0731C9.48 11.0731 9.97442 10.992 10.4538 10.837L7.5157 10.837C7.99527 10.992 8.48955 11.0731 8.98486 11.0731ZM2.64268 12.8803C2.70884 12.5117 2.79283 12.1703 2.89038 11.8652L2.64268 12.8803Z" stroke="#304B57" stroke-width="2"/>
</g>
<defs>
<clipPath id="clip0">
<rect width="17.9999" height="18" fill="white"/>
</clipPath>
</defs>
</svg>
