<svg width="15" height="13" viewBox="0 0 15 13" fill="none" xmlns="http://www.w3.org/2000/svg">
<path d="M1 4H3C3.55228 4 4 4.44772 4 5V7.69722C4 7.89465 4.05844 8.08766 4.16795 8.25192L5.80662 10.7099C5.92743 10.8912 6.13082 11 6.34861 11C6.70836 11 7 11.2916 7 11.6514V12C7 12.5523 6.55228 13 6 13H4.67703C4.26813 13 3.90042 12.751 3.74856 12.3714L2.25144 8.62861C2.09958 8.24895 1.73187 8 1.32297 8H1C0.447715 8 0 7.55228 0 7V5C0 4.44772 0.447715 4 1 4Z" fill="#304B57"/>
<path d="M14 7.66667V4.33333C14 4.14924 14.1492 4 14.3333 4C14.7015 4 15 4.29848 15 4.66667V7.33333C15 7.70152 14.7015 8 14.3333 8C14.1492 8 14 7.85076 14 7.66667Z" fill="#304B57"/>
<path d="M5 4.72076C5 4.29033 5.27543 3.90819 5.68377 3.77208L10.3162 2.22792C10.7246 2.09181 11 1.70967 11 1.27924V1C11 0.447715 11.4477 0 12 0C12.5523 0 13 0.447715 13 1V11C13 11.5523 12.5523 12 12 12C11.4477 12 11 11.5523 11 11V10.7208C11 10.2903 10.7246 9.90819 10.3162 9.77208L5.68377 8.22792C5.27543 8.09181 5 7.70967 5 7.27924V4.72076Z" fill="#304B57"/>
</svg>
