<svg width="18" height="18" viewBox="0 0 18 18" fill="none" xmlns="http://www.w3.org/2000/svg">
<path d="M13.7197 10.3694C13.5944 10.2249 13.5254 10.0401 13.5254 9.8488V6.56828C13.5254 3.48458 12.0487 1 8.97463 1C5.9006 1 4.44138 3.48458 4.44138 6.56828V9.85101C4.44138 10.041 4.37355 10.2247 4.2501 10.3691V10.3691C3.36543 11.4039 4.10077 13 5.4622 13H12.519C13.8812 13 14.6122 11.3985 13.7197 10.3694V10.3694Z" stroke="#304B57" stroke-width="2" stroke-linejoin="round"/>
<path d="M6.68817 15.2195C6.41203 15.2195 6.18348 15.4453 6.23331 15.7169C6.47036 17.009 7.61215 18 8.96866 18C10.3252 18 11.467 17.009 11.704 15.7169C11.7538 15.4453 11.5253 15.2195 11.2491 15.2195H6.68817Z" fill="#304B57"/>
</svg>
