<svg width="17" height="18" viewBox="0 0 17 18" fill="none" xmlns="http://www.w3.org/2000/svg">
<path d="M7 5.5C6.44772 5.5 6 5.94772 6 6.5C6 7.05228 6.44772 7.5 7 7.5V5.5ZM11 7.5C11.5523 7.5 12 7.05228 12 6.5C12 5.94772 11.5523 5.5 11 5.5V7.5ZM7 8.5C6.44772 8.5 6 8.94772 6 9.5C6 10.0523 6.44772 10.5 7 10.5V8.5ZM13 10.5C13.5523 10.5 14 10.0523 14 9.5C14 8.94772 13.5523 8.5 13 8.5V10.5ZM15.1464 1.85355L14.4393 1.14645L15.1464 1.85355ZM4.85355 1.85355L4.14645 2.56066L4.85355 1.85355ZM14.3536 2.64645L15.0607 3.35355L14.3536 2.64645ZM13.6464 2.64645L12.9393 3.35355L13.6464 2.64645ZM11.6464 1.35355L12.3536 2.06066L11.6464 1.35355ZM12.3536 1.35355L11.6464 2.06066L12.3536 1.35355ZM10.3536 2.64645L11.0607 3.35355L10.3536 2.64645ZM9.64645 2.64645L8.93934 3.35355L9.64645 2.64645ZM0 13.5V14H2V13.5H0ZM3 2.20711V13H5V2.20711H3ZM4 12H1.5V14H4V12ZM4 18H7V16H4V18ZM10.5 13.5V14.5H12.5V13.5H10.5ZM11 12H4V14H11V12ZM7 18H14V16H7V18ZM6.35355 1.93934L5.56066 1.14645L4.14645 2.56066L4.93934 3.35355L6.35355 1.93934ZM10.9393 0.646447L9.64645 1.93934L11.0607 3.35355L12.3536 2.06066L10.9393 0.646447ZM14.4393 1.14645L13.6464 1.93934L15.0607 3.35355L15.8536 2.56066L14.4393 1.14645ZM14.3536 1.93934L13.0607 0.646446L11.6464 2.06066L12.9393 3.35355L14.3536 1.93934ZM7 7.5H11V5.5H7V7.5ZM7 10.5H13V8.5H7V10.5ZM10.3536 1.93934L9.06066 0.646446L7.64645 2.06066L8.93934 3.35355L10.3536 1.93934ZM6.93934 0.646447L5.64645 1.93934L7.06066 3.35355L8.35355 2.06066L6.93934 0.646447ZM17 15V2.20711H15V15H17ZM9.06066 0.646446C8.47487 0.0606589 7.52513 0.0606611 6.93934 0.646447L8.35355 2.06066C8.15829 2.25592 7.84171 2.25592 7.64645 2.06066L9.06066 0.646446ZM15.8536 2.56066C15.5386 2.87564 15 2.65256 15 2.20711H17C17 0.870747 15.3843 0.201501 14.4393 1.14645L15.8536 2.56066ZM4.93934 3.35355C5.52513 3.93934 6.47487 3.93934 7.06066 3.35355L5.64645 1.93934C5.84171 1.74408 6.15829 1.74408 6.35355 1.93934L4.93934 3.35355ZM10.5 14.5C10.5 16.433 12.067 18 14 18V16C13.1716 16 12.5 15.3284 12.5 14.5H10.5ZM5 2.20711C5 2.65256 4.46143 2.87564 4.14645 2.56066L5.56066 1.14645C4.61571 0.201497 3 0.870752 3 2.20711H5ZM13.6464 1.93934C13.8417 1.74408 14.1583 1.74408 14.3536 1.93934L12.9393 3.35355C13.5251 3.93934 14.4749 3.93934 15.0607 3.35355L13.6464 1.93934ZM14 18C15.6569 18 17 16.6569 17 15H15C15 15.5523 14.5523 16 14 16V18ZM12.3536 2.06066C12.1583 2.25592 11.8417 2.25592 11.6464 2.06066L13.0607 0.646446C12.4749 0.0606589 11.5251 0.0606611 10.9393 0.646447L12.3536 2.06066ZM0 14C0 16.2091 1.79086 18 4 18V16C2.89543 16 2 15.1046 2 14H0ZM12.5 13.5C12.5 12.6716 11.8284 12 11 12V14C10.7239 14 10.5 13.7761 10.5 13.5H12.5ZM9.64645 1.93934C9.84171 1.74408 10.1583 1.74408 10.3536 1.93934L8.93934 3.35355C9.52513 3.93934 10.4749 3.93934 11.0607 3.35355L9.64645 1.93934ZM2 13.5C2 13.7761 1.77614 14 1.5 14V12C0.671573 12 0 12.6716 0 13.5H2Z" fill="#304B57"/>
</svg>
