<svg width="28" height="17" viewBox="0 0 28 17" fill="none" xmlns="http://www.w3.org/2000/svg">
<path d="M27.2579 9.60617C27.2147 8.98263 27.1273 8.30246 26.9987 7.5842C26.8688 6.86057 26.7016 6.17649 26.5014 5.55125C26.2946 4.90501 26.0133 4.26683 25.6657 3.65526C25.3048 3.0205 24.881 2.46777 24.4054 2.01293C23.9081 1.53711 23.2992 1.15454 22.5951 0.875487C21.8935 0.5979 21.1159 0.457275 20.2841 0.457275C19.9574 0.457275 19.6415 0.591308 19.0314 0.988523C18.6559 1.2334 18.2167 1.5166 17.7265 1.82983C17.3073 2.09692 16.7394 2.34716 16.038 2.57372C15.3537 2.79516 14.6589 2.90746 13.9731 2.90746C13.2873 2.90746 12.5927 2.79516 11.9077 2.57372C11.207 2.3474 10.6391 2.09716 10.2204 1.83007C9.73483 1.51977 9.29538 1.23657 8.91427 0.988279C8.3049 0.591064 7.98874 0.457031 7.66208 0.457031C6.83005 0.457031 6.05271 0.5979 5.3513 0.875731C4.64769 1.15429 4.03856 1.53686 3.54076 2.01318C3.06542 2.46825 2.64135 3.02074 2.281 3.65526C1.93359 4.26683 1.65234 4.90477 1.44531 5.55149C1.24536 6.17674 1.07812 6.86057 0.948241 7.5842C0.819579 8.30148 0.732177 8.9819 0.688965 9.6069C0.646484 10.2192 0.625 10.8547 0.625 11.4965C0.625 13.1669 1.156 14.5192 2.20312 15.5165C3.23729 16.5007 4.6057 16.9999 6.26975 16.9999H21.6779C23.3419 16.9999 24.7099 16.5009 25.7443 15.5165C26.7916 14.52 27.3226 13.1674 27.3226 11.4963C27.3224 10.8515 27.3007 10.2155 27.2579 9.60617Z" fill="black" fill-opacity="0.2"/>
</svg>
