<svg width="16" height="14" viewBox="0 0 16 14" fill="none" xmlns="http://www.w3.org/2000/svg">
<path fill-rule="evenodd" clip-rule="evenodd" d="M16 13C16 13.5523 15.5523 14 15 14H1C0.447715 14 0 13.5523 0 13V1C0 0.447716 0.447715 0 1 0H2C2.55228 0 3 0.447715 3 1V2C3 2.55228 3.44772 3 4 3C4.55228 3 5 2.55228 5 2V1C5 0.447715 5.44772 0 6 0C6.55228 0 7 0.447715 7 1V2C7 2.55228 7.44772 3 8 3C8.55229 3 9 2.55228 9 2V1C9 0.447715 9.44771 0 10 0C10.5523 0 11 0.447715 11 1V2C11 2.55228 11.4477 3 12 3C12.5523 3 13 2.55228 13 2V1C13 0.447715 13.4477 0 14 0H15C15.5523 0 16 0.447715 16 1V13ZM3 6C3 5.44772 3.44772 5 4 5C4.55228 5 5 5.44772 5 6C5 6.55228 4.55228 7 4 7C3.44772 7 3 6.55228 3 6ZM8 5C7.44772 5 7 5.44772 7 6C7 6.55228 7.44772 7 8 7C8.55229 7 9 6.55228 9 6C9 5.44772 8.55229 5 8 5ZM11 6C11 5.44772 11.4477 5 12 5C12.5523 5 13 5.44772 13 6C13 6.55228 12.5523 7 12 7C11.4477 7 11 6.55228 11 6ZM4 8C3.44772 8 3 8.44771 3 9C3 9.55229 3.44772 10 4 10C4.55228 10 5 9.55229 5 9C5 8.44771 4.55228 8 4 8ZM7 9C7 8.44771 7.44772 8 8 8C8.55229 8 9 8.44771 9 9C9 9.55229 8.55229 10 8 10C7.44772 10 7 9.55229 7 9ZM12 8C11.4477 8 11 8.44771 11 9C11 9.55229 11.4477 10 12 10C12.5523 10 13 9.55229 13 9C13 8.44771 12.5523 8 12 8Z" fill="#304B57" fill-opacity="0.4"/>
</svg>
