<svg width="17" height="17" viewBox="0 0 17 17" fill="none" xmlns="http://www.w3.org/2000/svg">
<path d="M16.537 12.4763L14.1646 10.1039C13.3173 9.2566 11.877 9.59555 11.538 10.697C11.2839 11.4596 10.4366 11.8832 9.67402 11.7137C7.97944 11.2901 5.69177 9.08714 5.26813 7.30784C5.01394 6.54525 5.52232 5.69797 6.28487 5.44381C7.38634 5.1049 7.72526 3.66451 6.87797 2.81723L4.50557 0.444825C3.82774 -0.148275 2.811 -0.148275 2.2179 0.444825L0.608058 2.05467C-1.00179 3.74924 0.777515 8.23986 4.75976 12.2221C8.742 16.2043 13.2326 18.0684 14.9272 16.3738L16.537 14.764C17.1302 14.0861 17.1302 13.0694 16.537 12.4763Z" fill="black" fill-opacity="0.2"/>
</svg>
