<svg width="32" height="32" viewBox="0 0 32 32" fill="none" xmlns="http://www.w3.org/2000/svg">
<path d="M16 6.52519e-05C24.8365 6.52519e-05 32 7.1635 32 16C32 24.8365 24.8365 31.9999 16 31.9999C7.16352 31.9999 6.63659e-05 24.8365 6.63659e-05 16C-0.0250774 7.18856 7.09757 0.025209 15.9089 6.52519e-05C15.9393 -2.17506e-05 15.9697 -2.17506e-05 16 6.52519e-05Z" fill="#F50909"/>
<path fill-rule="evenodd" clip-rule="evenodd" d="M13.8787 16L9.93933 12.0607L12.0607 9.93933L16 13.8787L19.9393 9.93933L22.0607 12.0607L18.1213 16L22.0607 19.9393L19.9393 22.0607L16 18.1213L12.0607 22.0607L9.93933 19.9393L13.8787 16Z" fill="white"/>
</svg>
