<svg width="12" height="12" viewBox="0 0 12 12" fill="none" xmlns="http://www.w3.org/2000/svg">
<path fill-rule="evenodd" clip-rule="evenodd" d="M3.8061 6.70711C4.19663 6.31658 4.19663 5.68342 3.8061 5.29289L0.707107 2.1939C0.316583 1.80337 0.316583 1.17021 0.707107 0.779685L0.779685 0.707107C1.17021 0.316582 1.80337 0.316582 2.1939 0.707106L5.29289 3.8061C5.68342 4.19663 6.31658 4.19663 6.70711 3.8061L9.8061 0.707107C10.1966 0.316582 10.8298 0.316583 11.2203 0.707107L11.2929 0.779685C11.6834 1.17021 11.6834 1.80337 11.2929 2.1939L8.1939 5.29289C7.80337 5.68342 7.80337 6.31658 8.1939 6.70711L11.2929 9.8061C11.6834 10.1966 11.6834 10.8298 11.2929 11.2203L11.2203 11.2929C10.8298 11.6834 10.1966 11.6834 9.8061 11.2929L6.70711 8.1939C6.31658 7.80337 5.68342 7.80337 5.29289 8.1939L2.1939 11.2929C1.80337 11.6834 1.17021 11.6834 0.779685 11.2929L0.707107 11.2203C0.316582 10.8298 0.316582 10.1966 0.707106 9.8061L3.8061 6.70711Z" fill="white"/>
</svg>
