<svg width="18" height="18" viewBox="0 0 18 18" fill="none" xmlns="http://www.w3.org/2000/svg">
<path d="M0 5.41176V2C0 0.89543 0.895432 0 2 0H5.41176C6.51633 0 7.41176 0.895432 7.41176 2V5.41176C7.41176 6.51633 6.51633 7.41176 5.41176 7.41176H2C0.89543 7.41176 0 6.51633 0 5.41176Z" fill="#FFAE00"/>
<path d="M10.5879 5.41176V2C10.5879 0.89543 11.4833 0 12.5879 0H15.9997C17.1042 0 17.9997 0.895432 17.9997 2V5.41176C17.9997 6.51633 17.1042 7.41176 15.9997 7.41176H12.5879C11.4833 7.41176 10.5879 6.51633 10.5879 5.41176Z" fill="white"/>
<path d="M0 16.0001V12.5884C0 11.4838 0.895432 10.5884 2 10.5884H5.41176C6.51633 10.5884 7.41176 11.4838 7.41176 12.5884V16.0001C7.41176 17.1047 6.51633 18.0001 5.41176 18.0001H2C0.89543 18.0001 0 17.1047 0 16.0001Z" fill="white"/>
<path d="M10.5879 16.0001V12.5884C10.5879 11.4838 11.4833 10.5884 12.5879 10.5884H15.9997C17.1042 10.5884 17.9997 11.4838 17.9997 12.5884V16.0001C17.9997 17.1047 17.1042 18.0001 15.9997 18.0001H12.5879C11.4833 18.0001 10.5879 17.1047 10.5879 16.0001Z" fill="white"/>
</svg>
