<svg width="12" height="16" viewBox="0 0 12 16" fill="none" xmlns="http://www.w3.org/2000/svg">
<path d="M0 1C0 0.447715 0.447715 0 1 0H7C7.55228 0 8 0.447715 8 1V3C8 3.55228 8.44771 4 9 4H11C11.5523 4 12 4.44772 12 5V15C12 15.5523 11.5523 16 11 16H1C0.447715 16 0 15.5523 0 15V14C0 13.4477 0.447715 13 1 13H2C2.55228 13 3 12.5523 3 12C3 11.4477 2.55228 11 2 11H1C0.447715 11 0 10.5523 0 10C0 9.44771 0.447715 9 1 9H2C2.55228 9 3 8.55229 3 8C3 7.44772 2.55228 7 2 7H1C0.447715 7 0 6.55228 0 6C0 5.44772 0.447715 5 1 5H2C2.55228 5 3 4.55228 3 4C3 3.44772 2.55228 3 2 3H1C0.447715 3 0 2.55228 0 2V1Z" fill="#304B57"/>
</svg>
