<svg width="16" height="16" viewBox="0 0 16 16" fill="none" xmlns="http://www.w3.org/2000/svg">
<path d="M8 4C8 4.55228 8.44772 5 9 5C9.55229 5 10 4.55228 10 4H8ZM10 12C10 11.4477 9.55229 11 9 11C8.44772 11 8 11.4477 8 12H10ZM2 2H8V0H2V2ZM8 14H2V16H8V14ZM2 14V2H0V14H2ZM8 2V4H10V2H8ZM8 12V14H10V12H8ZM2 14H0C0 15.1046 0.89543 16 2 16V14ZM8 16C9.10457 16 10 15.1046 10 14H8V16ZM8 2H10C10 0.895431 9.10457 0 8 0V2ZM2 0C0.89543 0 0 0.895431 0 2H2V2V0Z" fill="#304B57"/>
<path d="M6 8H14.5M14.5 8L12 5M14.5 8L12 11" stroke="#304B57" stroke-width="2" stroke-linecap="round" stroke-linejoin="round"/>
</svg>
