<svg width="17" height="15" viewBox="0 0 17 15" fill="none" xmlns="http://www.w3.org/2000/svg">
<path d="M8.5 5.86084C10.0954 5.86084 11.3887 4.56754 11.3887 2.97217C11.3887 1.3768 10.0954 0.0834961 8.5 0.0834961C6.90463 0.0834961 5.61133 1.3768 5.61133 2.97217C5.61133 4.56754 6.90463 5.86084 8.5 5.86084Z" fill="black" fill-opacity="0.2"/>
<path d="M14.3438 5.86085C15.3523 5.86085 16.1699 5.04324 16.1699 4.03467C16.1699 3.0261 15.3523 2.2085 14.3438 2.2085C13.3352 2.2085 12.5176 3.0261 12.5176 4.03467C12.5176 5.04324 13.3352 5.86085 14.3438 5.86085Z" fill="black" fill-opacity="0.2"/>
<path d="M2.65625 5.86085C3.66482 5.86085 4.48242 5.04324 4.48242 4.03467C4.48242 3.0261 3.66482 2.2085 2.65625 2.2085C1.64768 2.2085 0.830078 3.0261 0.830078 4.03467C0.830078 5.04324 1.64768 5.86085 2.65625 5.86085Z" fill="black" fill-opacity="0.2"/>
<path d="M4.45553 7.50074C3.73668 6.91178 3.08567 6.98974 2.25449 6.98974C1.01137 6.98974 0 7.99513 0 9.23062V12.8567C0 13.3933 0.437949 13.8296 0.976504 13.8296C3.30159 13.8296 3.02148 13.8716 3.02148 13.7293C3.02148 11.1598 2.71714 9.27554 4.45553 7.50074Z" fill="black" fill-opacity="0.2"/>
<path d="M9.2903 7.00256C7.83852 6.88147 6.57664 7.00395 5.48821 7.90236C3.66678 9.3613 4.01731 11.3257 4.01731 13.7288C4.01731 14.3646 4.53461 14.8916 5.18008 14.8916C12.1887 14.8916 12.4676 15.1177 12.8832 14.1973C13.0195 13.8861 12.9822 13.985 12.9822 11.0075C12.9822 8.64259 10.9344 7.00256 9.2903 7.00256Z" fill="black" fill-opacity="0.2"/>
<path d="M14.746 6.98966C13.9102 6.98966 13.2628 6.9125 12.5449 7.50066C14.2703 9.26228 13.979 11.018 13.979 13.7292C13.979 13.8725 13.7464 13.8295 15.9891 13.8295C16.5469 13.8295 17.0005 13.3776 17.0005 12.8221V9.23054C17.0005 7.99505 15.9891 6.98966 14.746 6.98966Z" fill="black" fill-opacity="0.2"/>
</svg>
