<svg width="17" height="17" viewBox="0 0 17 17" fill="none" xmlns="http://www.w3.org/2000/svg">
<g clip-path="url(#clip0)">
<path d="M8.5 6.86096C10.0954 6.86096 11.3887 5.56766 11.3887 3.97229C11.3887 2.37692 10.0954 1.08362 8.5 1.08362C6.90463 1.08362 5.61133 2.37692 5.61133 3.97229C5.61133 5.56766 6.90463 6.86096 8.5 6.86096Z" fill="#304B57"/>
<path d="M14.3438 6.86091C15.3523 6.86091 16.1699 6.0433 16.1699 5.03473C16.1699 4.02616 15.3523 3.20856 14.3438 3.20856C13.3352 3.20856 12.5176 4.02616 12.5176 5.03473C12.5176 6.0433 13.3352 6.86091 14.3438 6.86091Z" fill="#304B57"/>
<path d="M2.65625 6.86091C3.66482 6.86091 4.48242 6.0433 4.48242 5.03473C4.48242 4.02616 3.66482 3.20856 2.65625 3.20856C1.64768 3.20856 0.830078 4.02616 0.830078 5.03473C0.830078 6.0433 1.64768 6.86091 2.65625 6.86091Z" fill="#304B57"/>
<path d="M4.45553 8.50098C3.73668 7.91203 3.08567 7.98999 2.25449 7.98999C1.01137 7.98999 0 8.99538 0 10.2309V13.857C0 14.3935 0.437949 14.8298 0.976504 14.8298C3.30159 14.8298 3.02148 14.8719 3.02148 14.7295C3.02148 12.1601 2.71714 10.2758 4.45553 8.50098Z" fill="#304B57"/>
<path d="M9.29054 8.00292C7.83877 7.88183 6.57688 8.00432 5.48845 8.90273C3.66703 10.3617 4.01755 12.3261 4.01755 14.7292C4.01755 15.365 4.53486 15.892 5.18033 15.892C12.1889 15.892 12.4678 16.1181 12.8835 15.1977C13.0198 14.8865 12.9824 14.9854 12.9824 12.0079C12.9824 9.64296 10.9347 8.00292 9.29054 8.00292Z" fill="#304B57"/>
<path d="M14.7459 7.99C13.9102 7.99 13.2627 7.91283 12.5449 8.50099C14.2703 10.2626 13.9789 12.0184 13.9789 14.7296C13.9789 14.8728 13.7464 14.8298 15.989 14.8298C16.5468 14.8298 17.0004 14.3779 17.0004 13.8224V10.2309C17.0004 8.99539 15.989 7.99 14.7459 7.99Z" fill="#304B57"/>
</g>
<defs>
<clipPath id="clip0">
<rect width="17" height="17" fill="white"/>
</clipPath>
</defs>
</svg>
