<svg width="12" height="16" viewBox="0 0 12 16" fill="none" xmlns="http://www.w3.org/2000/svg">
<path fill-rule="evenodd" clip-rule="evenodd" d="M2.00001 2.3206e-05C0.895444 2.96142e-05 0 0.895458 0 2.00002V14C0 15.1046 0.895431 16 2 16H10C11.1046 16 12 15.1046 12 14V2.00001C12 0.895451 11.1046 2.44194e-05 10 1.16032e-05C9.44773 5.19498e-06 9 0.44772 9 1.00001C9 1.55229 8.55228 2 8 2C7.44772 2 7 1.55228 7 1C7 0.447715 6.55228 0 5.99999 0C5.44772 0 5 0.447709 5 0.999987C5 1.55226 4.55228 1.99997 4 1.99997C3.44773 1.99998 3 1.55227 3 0.999999C3 0.447725 2.55228 2.0002e-05 2.00001 2.3206e-05ZM3 4C2.44772 4 2 4.44772 2 5V12C2 12.5523 2.44772 13 3 13H9C9.55229 13 10 12.5523 10 12V5C10 4.44772 9.55229 4 9 4H3Z" fill="#304B57"/>
</svg>
