<svg width="24" height="24" viewBox="0 0 24 24" fill="none" xmlns="http://www.w3.org/2000/svg">
<rect width="24" height="24" rx="4" fill="#3B4B52" fill-opacity="0.2"/>
<g clip-path="url(#clip0)">
<path d="M17.6734 14.8068L15.9988 13.1322C15.4007 12.5341 14.384 12.7733 14.1447 13.5508C13.9653 14.0891 13.3672 14.3882 12.8289 14.2685C11.6328 13.9695 10.0179 12.4145 9.71891 11.1585C9.53948 10.6202 9.89833 10.0221 10.4366 9.84269C11.2141 9.60346 11.4534 8.58671 10.8553 7.98863L9.18063 6.31399C8.70216 5.89534 7.98446 5.89534 7.5658 6.31399L6.42944 7.45035C5.29308 8.64652 6.54906 11.8164 9.36006 14.6274C12.1711 17.4384 15.3409 18.7542 16.5371 17.558L17.6734 16.4216C18.0921 15.9431 18.0921 15.2254 17.6734 14.8068Z" fill="white"/>
</g>
<defs>
<clipPath id="clip0">
<rect width="12" height="12" fill="white" transform="translate(6 6)"/>
</clipPath>
</defs>
</svg>
