<svg width="16" height="18" viewBox="0 0 16 18" fill="none" xmlns="http://www.w3.org/2000/svg">
<path d="M0 12C0 11.4477 0.447715 11 1 11H2.05464C2.33812 11 2.60829 11.1203 2.79793 11.331L6.70207 15.669C6.89171 15.8797 7.16188 16 7.44536 16H7.58579C7.851 16 8.10536 15.8946 8.29289 15.7071L12.7071 11.2929C12.8946 11.1054 13.149 11 13.4142 11H14C14.5523 11 15 11.4477 15 12V17C15 17.5523 14.5523 18 14 18H1C0.447715 18 0 17.5523 0 17V12Z" fill="#304B57"/>
<path d="M4 7C2.23142 3.90499 4.43532 0 8 0C11.5647 0 13.7686 3.90499 12 7L8.40433 11.7942C7.97505 12.3666 7.10106 12.3161 6.74055 11.6981L4 7Z" fill="#304B57"/>
<circle cx="8" cy="4" r="2" fill="white"/>
</svg>
