<svg width="18" height="18" viewBox="0 0 18 18" fill="none" xmlns="http://www.w3.org/2000/svg">
<path d="M11.1211 6.12105L11.1211 6.121C11.7113 5.53085 12 4.83372 12 3.99987C12 3.16654 11.7114 2.46929 11.1211 1.87887C11.1211 1.87881 11.121 1.87875 11.121 1.87869M11.1211 6.12105L11.121 1.87869M11.1211 6.12105C10.531 6.71124 9.83371 7 9 7C8.16672 7 7.46942 6.71123 6.87906 6.12106L11.1211 6.12105ZM11.121 1.87869C10.5307 1.28868 9.83346 1 9 1C8.16621 1 7.46912 1.28873 6.87899 1.87888C6.2888 2.46908 6 3.16636 6 3.99987C6 4.83364 6.2888 5.53085 6.879 6.12101L11.121 1.87869Z" stroke="#304B57" stroke-width="2"/>
<path d="M11.5207 10.5802L11.5196 10.5809C10.782 11.0685 9.86112 11.333 9.00001 11.333C8.13892 11.333 7.21797 11.0685 6.48038 10.5809L6.4793 10.5802C6.35963 10.5009 6.23666 10.4071 6.1402 10.3335C6.13466 10.3293 6.1292 10.3251 6.12383 10.321C6.0139 10.2372 5.9235 10.1688 5.83564 10.1095C5.74755 10.05 5.68744 10.0174 5.64939 10.0011C5.6488 10.0008 5.64823 10.0006 5.64767 10.0004C4.71053 10.0159 4.08977 10.5423 3.64695 11.4944C3.17942 12.4997 3.00046 13.8368 3 15.0058L11.5207 10.5802ZM11.5207 10.5802C11.6404 10.5009 11.7633 10.4071 11.8598 10.3335M11.5207 10.5802L11.8598 10.3335M11.8598 10.3335C11.8654 10.3293 11.8708 10.3251 11.8762 10.321M11.8598 10.3335L11.8762 10.321M11.8762 10.321C11.9861 10.2372 12.0765 10.1688 12.1644 10.1095M11.8762 10.321L12.1644 10.1095M12.1644 10.1095C12.2524 10.05 12.3126 10.0174 12.3506 10.0011M12.1644 10.1095L12.3506 10.0011M12.3506 10.0011C12.3512 10.0008 12.3518 10.0006 12.3523 10.0004M12.3506 10.0011L12.3523 10.0004M12.3523 10.0004C13.2895 10.0159 13.9102 10.5423 14.3531 11.4944C14.8206 12.4997 14.9995 13.8368 15 15.0058L12.3523 10.0004ZM13.0401 17C14.1792 17 14.9998 16.2237 15 15.0061L13.0401 17ZM13.0401 17H4.95989C3.82079 17 3.00016 16.2237 3 15.0061L13.0401 17ZM5.62909 9.99337C5.62909 9.99336 5.62959 9.99349 5.63062 9.99382L5.62909 9.99337ZM12.3709 9.99337C12.3709 9.99339 12.3704 9.99355 12.3694 9.99382L12.3709 9.99337Z" stroke="#304B57" stroke-width="2"/>
</svg>
