<svg width="14" height="18" viewBox="0 0 14 18" fill="none" xmlns="http://www.w3.org/2000/svg">
<path d="M13 12.2098V15C13 16.1046 12.1046 17 11 17H3C1.89543 17 1 16.1046 1 15V12.2098C1 10.9894 1.98936 10 3.2098 10C3.3626 10 3.59594 10.0862 3.88124 10.3333L4.5359 9.57735L3.88125 10.3333C4.49152 10.8618 5.53631 11.5 7 11.5C8.46369 11.5 9.50848 10.8618 10.1188 10.3333C10.4041 10.0862 10.6374 10 10.7902 10C12.0106 10 13 10.9894 13 12.2098Z" stroke="#304B57" stroke-width="2"/>
<circle cx="7" cy="4" r="3" stroke="#304B57" stroke-width="2"/>
</svg>
