<svg width="16" height="12" viewBox="0 0 16 12" fill="none" xmlns="http://www.w3.org/2000/svg">
<path fill-rule="evenodd" clip-rule="evenodd" d="M0.472021 1.15143C0.26239 1.45447 0.409286 1.85134 0.728461 2.03548L7.99984 6.23047L15.2714 2.03533C15.5906 1.85118 15.7375 1.45426 15.5278 1.15121C15.0465 0.455653 14.2431 0 13.3333 0H2.66667C1.75677 0 0.953259 0.455745 0.472021 1.15143ZM16 4.68665C16 4.30182 15.5835 4.06125 15.2501 4.25355L8.33293 8.24425C8.12679 8.3632 7.8728 8.3632 7.66667 8.24425L0.74986 4.25379C0.416527 4.06148 0 4.30205 0 4.68688V9.33333C0 10.8061 1.19393 12 2.66667 12H13.3333C14.8061 12 16 10.8061 16 9.33333V4.68665Z" fill="#304B57"/>
</svg>
