<svg width="18" height="18" viewBox="0 0 18 18" fill="none" xmlns="http://www.w3.org/2000/svg">
<path d="M8.48693 0H7.69372C7.20421 9.60661e-08 6.95906 0.613786 7.30519 0.972759L15.4803 9.45107C15.9095 9.89614 16.6053 9.89614 17.0344 9.45107L17.6781 8.78348C18.1073 8.33841 18.1073 7.61682 17.6781 7.17175L12.3722 1.66899C11.3417 0.600355 9.94417 0 8.48693 0Z" fill="white" />
<path d="M11.4718 7.57617L10.0511 6.10271C9.8365 5.88018 9.48861 5.88018 9.27404 6.10271L0.160931 15.5538C-0.0536433 15.7763 -0.0536439 16.1371 0.160931 16.3596L1.5817 17.8331C1.79627 18.0556 2.14417 18.0556 2.35874 17.8331L11.4718 8.38203C11.6864 8.1595 11.6864 7.7987 11.4718 7.57617Z" fill="white" />
</svg>
