<svg width="18" height="18" viewBox="0 0 18 18" fill="none" xmlns="http://www.w3.org/2000/svg">
<path d="M15 10C14.4477 10 14 9.55229 14 9V6C14 2.9163 12.0487 1 8.97463 1C5.9006 1 4 2.9163 4 6V9C4 9.55229 3.55228 10 3 10H2C1.44772 10 1 10.4477 1 11C1 12.1046 1.89543 13 3 13H15C16.1046 13 17 12.1046 17 11C17 10.4477 16.5523 10 16 10H15Z" fill="#304B57"/>
<path d="M6.5 15C6.22386 15 5.9953 15.2258 6.04514 15.4974C6.28219 16.7895 7.42398 17.7805 8.78049 17.7805C10.137 17.7805 11.2788 16.7895 11.5158 15.4974C11.5657 15.2258 11.3371 15 11.061 15H6.5Z" fill="#304B57"/>
</svg>
