<svg width="17" height="17" viewBox="0 0 17 17" fill="none" xmlns="http://www.w3.org/2000/svg">
<path d="M16.5374 12.4763L14.165 10.1039C13.3177 9.2566 11.8773 9.59555 11.5384 10.697C11.2842 11.4596 10.4369 11.8832 9.67435 11.7137C7.97978 11.2901 5.69211 9.08714 5.26847 7.30784C5.01428 6.54525 5.52265 5.69797 6.28521 5.44381C7.38668 5.1049 7.7256 3.66451 6.87831 2.81723L4.50591 0.444825C3.82808 -0.148275 2.81134 -0.148275 2.21824 0.444825L0.608393 2.05467C-1.00145 3.74924 0.777851 8.23986 4.76009 12.2221C8.74234 16.2043 13.233 18.0684 14.9275 16.3738L16.5374 14.764C17.1305 14.0861 17.1305 13.0694 16.5374 12.4763Z" fill="#3D5661"/>
</svg>
