<svg width="32" height="32" viewBox="0 0 32 32" fill="none" xmlns="http://www.w3.org/2000/svg">
<path d="M16 6.52519e-05C24.8365 6.52519e-05 32 7.1635 32 16C32 24.8365 24.8365 31.9999 16 31.9999C7.16351 31.9999 6.63659e-05 24.8365 6.63659e-05 16C-0.0250774 7.18856 7.09757 0.025209 15.9089 6.52519e-05C15.9393 -2.17506e-05 15.9697 -2.17506e-05 16 6.52519e-05Z" fill="#2AB986"/>
<path fill-rule="evenodd" clip-rule="evenodd" d="M19.1713 10.063L23.9209 16L19.1713 21.937L16.8287 20.063L20.0791 16L16.8287 11.937L19.1713 10.063Z" fill="white"/>
<path fill-rule="evenodd" clip-rule="evenodd" d="M11.1713 10.063L15.9209 16L11.1713 21.937L8.8287 20.063L12.0791 16L8.8287 11.937L11.1713 10.063Z" fill="white"/>
</svg>
