<svg width="19" height="19" viewBox="0 0 19 19" fill="none" xmlns="http://www.w3.org/2000/svg">
<path d="M16.9993 17.5H6C5.72386 17.5 5.5 17.2761 5.5 17V13.916C5.5 13.7382 5.30181 13.6321 5.15385 13.7308C3.37829 14.9145 1 13.634 1 11.5C1 9.36605 3.37829 8.08553 5.15385 9.26923C5.30181 9.36787 5.5 9.2618 5.5 9.08397V6C5.5 5.72386 5.72386 5.5 6 5.5H9.08324C9.26107 5.5 9.36714 5.30181 9.2685 5.15385C8.08479 3.37829 9.36531 1 11.4993 1C13.6332 1 14.9137 3.37829 13.73 5.15385C13.6314 5.30181 13.7375 5.5 13.9153 5.5H16.9993C17.2755 5.5 17.4993 5.72386 17.4993 6V16.9997C17.4993 17.2758 17.2755 17.5 16.9993 17.5Z" stroke="#304B57" stroke-width="2"/>
</svg>
