<svg width="18" height="18" viewBox="0 0 18 18" fill="none" xmlns="http://www.w3.org/2000/svg">
<circle cx="9" cy="9" r="8" stroke="#304B57" stroke-width="2"/>
<path d="M6 7C6 7.55228 6.44772 8 7 8C7.55228 8 8 7.55228 8 7H6ZM8.5 10.5C8.5 11.0523 8.94772 11.5 9.5 11.5C10.0523 11.5 10.5 11.0523 10.5 10.5H8.5ZM8 7V6.80489H6V7H8ZM9.52116 5.58465L9.62894 5.6086L10.0628 3.65623L9.95502 3.63228L9.52116 5.58465ZM10.5 6.69448V6.88197H12.5V6.69448H10.5ZM8.5 10.118V10.5H10.5V10.118H8.5ZM10.0528 7.60557C9.10114 8.0814 8.5 9.05406 8.5 10.118H10.5C10.5 9.8116 10.6731 9.53147 10.9472 9.39443L10.0528 7.60557ZM10.5 6.88197C10.5 7.1884 10.3269 7.46853 10.0528 7.60557L10.9472 9.39443C11.8989 8.9186 12.5 7.94594 12.5 6.88197H10.5ZM9.62894 5.6086C10.1379 5.7217 10.5 6.17312 10.5 6.69448H12.5C12.5 5.23572 11.4868 3.97268 10.0628 3.65623L9.62894 5.6086ZM8 6.80489C8 6.0052 8.74052 5.41118 9.52116 5.58465L9.95502 3.63228C7.92535 3.18124 6 4.72571 6 6.80489H8Z" fill="#304B57"/>
<circle cx="9.5" cy="13" r="1" fill="#304B57"/>
</svg>
