<svg width="18" height="15" viewBox="0 0 18 15" fill="none" xmlns="http://www.w3.org/2000/svg">
<path d="M8.20711 12.2071C8.39464 12.3946 8.5 12.649 8.5 12.9142V13C8.5 13.5523 8.05228 14 7.5 14H1C0.447715 14 0 13.5523 0 13V1C0 0.447716 0.447715 0 1 0H2C2.55228 0 3 0.447715 3 1V2C3 2.55228 3.44772 3 4 3V3C4.55228 3 5 2.55228 5 2V1C5 0.447715 5.44772 0 6 0V0C6.55228 0 7 0.447715 7 1V2C7 2.55228 7.44772 3 8 3V3C8.55228 3 9 2.55228 9 2V1C9 0.447715 9.44772 0 10 0V0C10.5523 0 11 0.447715 11 1V2C11 2.55228 11.4477 3 12 3V3C12.5523 3 13 2.55228 13 2V1C13 0.447715 13.4477 0 14 0H15C15.5523 0 16 0.447715 16 1V5V5.14645C16 5.34171 15.8417 5.5 15.6464 5.5V5.5C15.5527 5.5 15.4628 5.46275 15.3964 5.39645L14.7929 4.79289C14.6054 4.60536 14.351 4.5 14.0858 4.5H12.9142C12.649 4.5 12.3946 4.60536 12.2071 4.79289L11.7929 5.20711C11.6054 5.39464 11.351 5.5 11.0858 5.5H10.4142C10.149 5.5 9.89464 5.60536 9.70711 5.79289L8.79289 6.70711C8.60536 6.89464 8.5 7.149 8.5 7.41421V8.08579C8.5 8.351 8.39464 8.60536 8.20711 8.79289L7.79289 9.20711C7.60536 9.39464 7.5 9.649 7.5 9.91421V11.0858C7.5 11.351 7.60536 11.6054 7.79289 11.7929L8.20711 12.2071Z" fill="#304B57"/>
<path fill-rule="evenodd" clip-rule="evenodd" d="M13.1709 6C12.8556 6 12.6 6.25559 12.6 6.57088C12.6 6.83136 12.4216 7.05436 12.1793 7.14996C12.141 7.16508 12.103 7.18084 12.0654 7.19722C11.8264 7.30117 11.5425 7.26961 11.3582 7.08534C11.1352 6.86234 10.7736 6.86235 10.5506 7.08535L10.0854 7.55061C9.8624 7.7736 9.86241 8.13512 10.0854 8.3581C10.2696 8.54237 10.3012 8.82629 10.1972 9.06524C10.1808 9.10295 10.1651 9.141 10.1499 9.17937C10.0543 9.42165 9.83132 9.6 9.57086 9.6C9.25558 9.6 9 9.85558 9 10.1709V10.8291C9 11.1444 9.2556 11.4 9.57089 11.4C9.83137 11.4 10.0544 11.5783 10.15 11.8207C10.1651 11.859 10.1809 11.897 10.1973 11.9347C10.3012 12.1736 10.2697 12.4575 10.0854 12.6418C9.86242 12.8648 9.86241 13.2263 10.0854 13.4493L10.5507 13.9146C10.7737 14.1376 11.1352 14.1376 11.3582 13.9146C11.5424 13.7304 11.8263 13.6988 12.0653 13.8027C12.103 13.8191 12.141 13.8349 12.1793 13.85C12.4216 13.9456 12.6 14.1686 12.6 14.4291C12.6 14.7444 12.8556 15 13.1709 15H13.8291C14.1444 15 14.4 14.7444 14.4 14.4291C14.4 14.1686 14.5784 13.9456 14.8207 13.85C14.859 13.8349 14.897 13.8191 14.9347 13.8028C15.1737 13.6988 15.4576 13.7303 15.6419 13.9146C15.8648 14.1376 16.2263 14.1376 16.4493 13.9146L16.9146 13.4493C17.1376 13.2263 17.1376 12.8648 16.9146 12.6418C16.7304 12.4575 16.6988 12.1736 16.8028 11.9347C16.8191 11.897 16.8349 11.859 16.85 11.8206C16.9456 11.5783 17.1686 11.4 17.4291 11.4C17.7444 11.4 18 11.1444 18 10.8291V10.1709C18 9.85558 17.7444 9.6 17.4291 9.6C17.1687 9.6 16.9457 9.42166 16.8501 9.17937C16.8349 9.14101 16.8192 9.10297 16.8028 9.06527C16.6988 8.82632 16.7304 8.54239 16.9146 8.35813C17.1376 8.13515 17.1376 7.77362 16.9146 7.55064L16.4494 7.08537C16.2264 6.86237 15.8648 6.86237 15.6418 7.08536C15.4575 7.26963 15.1736 7.30118 14.9346 7.19723C14.897 7.18085 14.859 7.16509 14.8207 7.14997C14.5784 7.05437 14.4 6.83136 14.4 6.57088C14.4 6.25559 14.1444 6 13.8291 6H13.1709ZM13.5 12.3C14.4941 12.3 15.3 11.4941 15.3 10.5C15.3 9.50589 14.4941 8.7 13.5 8.7C12.5059 8.7 11.7 9.50589 11.7 10.5C11.7 11.4941 12.5059 12.3 13.5 12.3Z" fill="#304B57"/>
</svg>
