<svg width="16" height="16" viewBox="0 0 16 16" fill="none" xmlns="http://www.w3.org/2000/svg">
<path d="M11.0708 9.4944C12.9914 6.78231 12.3491 3.02685 9.63698 1.10668C6.92488 -0.813486 3.16943 -0.171595 1.24926 2.54096C-0.670908 5.25305 -0.0290167 9.00805 2.68354 10.9282C4.6193 12.2987 7.17861 12.4042 9.22037 11.1985L13.6567 15.6082C14.1357 16.1124 14.9327 16.1326 15.4369 15.6536C15.9412 15.1751 15.9614 14.3781 15.4828 13.8739C15.4677 13.8578 15.453 13.8431 15.4369 13.828L11.0708 9.4944ZM6.15636 9.9055C4.0132 9.90596 2.27564 8.16978 2.27427 6.02663C2.27381 3.88347 4.00999 2.14591 6.1536 2.145C8.29401 2.14408 10.0306 3.87751 10.0348 6.01791C10.0384 8.16152 8.30318 9.90183 6.15911 9.9055C6.15819 9.9055 6.15773 9.9055 6.15636 9.9055Z" fill="white" fill-opacity="0.6"/>
</svg>
