<svg width="18" height="18" viewBox="0 0 18 18" fill="none" xmlns="http://www.w3.org/2000/svg">
<path d="M15.2775 7.30845L16.6438 7.64375C16.85 7.69063 17 7.87813 17 8.09375V9.96875C17 10.1844 16.85 10.3719 16.6438 10.4187L15.2775 10.754C14.9636 10.8311 14.7182 11.0671 14.595 11.3659C14.473 11.6619 14.4783 12.0014 14.643 12.2758L15.3344 13.4281C15.4469 13.6156 15.4187 13.85 15.2688 14L13.9375 15.3313C13.7875 15.4812 13.5531 15.5094 13.3656 15.3969L12.2141 14.706C11.9392 14.541 11.599 14.5357 11.3026 14.6579C11.0042 14.7808 10.7681 15.0254 10.6902 15.3387L10.3656 16.6438C10.3094 16.85 10.1219 17 9.90625 17H8.03125C7.81563 17 7.62813 16.85 7.57188 16.6438L7.24729 15.3387C7.16939 15.0254 6.93334 14.7808 6.63492 14.6579C6.33845 14.5357 5.99833 14.541 5.72337 14.706L4.57188 15.3969C4.38438 15.5094 4.15 15.4812 4 15.3313L2.66875 14C2.51875 13.85 2.49062 13.6156 2.60312 13.4281L3.29326 12.2779C3.45871 12.0022 3.46405 11.6611 3.34158 11.3637C3.21893 11.0659 2.97557 10.8299 2.66339 10.7506L1.35625 10.4187C1.15 10.3719 1 10.1844 1 9.96875V8.09375C1 7.87813 1.15 7.69063 1.35625 7.64375L2.66339 7.31189C2.97557 7.23263 3.21893 6.9966 3.34158 6.69879C3.46405 6.40144 3.45871 6.06035 3.29326 5.7846L2.60312 4.63438C2.49062 4.44688 2.51875 4.2125 2.66875 4.0625L4 2.73125C4.15 2.58125 4.38438 2.55312 4.57188 2.66562L5.7254 3.35774C5.9991 3.52196 6.33767 3.52729 6.63273 3.40555C6.93211 3.28203 7.16819 3.03545 7.24389 2.72056L7.57188 1.35625C7.62813 1.15 7.81563 1 8.03125 1H9.90625C10.1219 1 10.3094 1.15 10.3656 1.35625L10.6936 2.72056C10.7693 3.03545 11.0054 3.28203 11.3048 3.40555C11.5998 3.52729 11.9384 3.52196 12.2121 3.35774L13.3656 2.66562C13.5531 2.55312 13.7875 2.58125 13.9375 2.73125L15.2688 4.0625C15.4187 4.2125 15.4469 4.44688 15.3344 4.63438L14.643 5.78667C14.4783 6.06114 14.473 6.40064 14.595 6.69655C14.7182 6.99535 14.9636 7.23142 15.2775 7.30845Z" stroke="#304B57" stroke-width="2" stroke-linejoin="round"/>
<path d="M6 9C6 10.656 7.344 12 9 12C10.656 12 12 10.656 12 9C12 7.344 10.656 6 9 6C7.344 6 6 7.344 6 9Z" stroke="#304B57" stroke-width="2"/>
</svg>
