<svg width="18" height="12" viewBox="0 0 18 12" fill="none" xmlns="http://www.w3.org/2000/svg">
<path fill-rule="evenodd" clip-rule="evenodd" d="M0.219122 5.13376C1.32355 3.0295 3.44727 0 8.50594 0C13.5646 0 15.6883 3.0295 16.7928 5.13376C17.0771 5.67553 17.0771 6.32447 16.7928 6.86624C15.6883 8.9705 13.5646 12 8.50594 12C3.44727 12 1.32355 8.9705 0.219122 6.86624C-0.0652281 6.32447 -0.0652281 5.67553 0.219122 5.13376ZM6.56878 6C6.56878 4.89543 7.43626 4 8.50636 4C9.57646 4 10.4439 4.89543 10.4439 6C10.4439 7.10457 9.57646 8 8.50636 8C7.43626 8 6.56878 7.10457 6.56878 6ZM8.50636 2C6.36617 2 4.6312 3.79086 4.6312 6C4.6312 8.20914 6.36617 10 8.50636 10C10.6466 10 12.3815 8.20914 12.3815 6C12.3815 3.79086 10.6466 2 8.50636 2Z" fill="#304B57" fill-opacity="0.4"/>
</svg>
