<svg width="32" height="32" viewBox="0 0 32 32" fill="none" xmlns="http://www.w3.org/2000/svg">
<path d="M16 6.52519e-05C24.8365 6.52519e-05 32 7.1635 32 16C32 24.8365 24.8365 31.9999 16 31.9999C7.16351 31.9999 6.63659e-05 24.8365 6.63659e-05 16C-0.0250774 7.18856 7.09757 0.025209 15.9089 6.52519e-05C15.9393 -2.17506e-05 15.9697 -2.17506e-05 16 6.52519e-05Z" fill="#2AB986"/>
<path fill-rule="evenodd" clip-rule="evenodd" d="M23 17.1523L16.0397 22.9526L9.07945 17.1523L11 14.8477L14.5397 17.7974L14.5397 10L17.5397 10L17.5397 17.7974L21.0794 14.8477L23 17.1523Z" fill="white"/>
</svg>
