<svg width="24" height="18" viewBox="0 0 24 18" fill="none" xmlns="http://www.w3.org/2000/svg">
<path fill-rule="evenodd" clip-rule="evenodd" d="M0.536786 1.99712C0.352009 2.31592 0.496526 2.70928 0.815701 2.89342L11.9998 9.3457L23.1841 2.89318C23.5033 2.70902 23.6478 2.31562 23.463 1.99681C22.7709 0.802967 21.4792 0 20 0H4C2.52068 0 1.22883 0.803105 0.536786 1.99712ZM24 6.59712C24 6.21229 23.5835 5.97172 23.2501 6.16403L12.4994 12.3664C12.1902 12.5448 11.8092 12.5448 11.5 12.3664L0.749862 6.16438C0.416529 5.97207 0 6.21264 0 6.59747V14C0 16.2091 1.79089 18 4 18H20C22.2091 18 24 16.2091 24 14V6.59712Z" fill="white"/>
</svg>
