<svg width="17" height="17" viewBox="0 0 17 17" fill="none" xmlns="http://www.w3.org/2000/svg">
<path d="M14.4496 1.70001H10.8924C10.5439 0.713999 9.60885 0 8.4996 0C7.39035 0 6.45534 0.713999 6.10687 1.70001H2.54962C1.61039 1.70001 0.849609 2.46075 0.849609 3.40002V15.3C0.849609 16.2392 1.61035 17 2.54962 17H14.4496C15.3889 17 16.1496 16.2393 16.1496 15.3V3.39998C16.1496 2.46075 15.3889 1.70001 14.4496 1.70001ZM8.4996 1.70001C8.96709 1.70001 9.34959 2.07825 9.34959 2.55C9.34959 3.02175 8.96709 3.39998 8.4996 3.39998C8.03212 3.39998 7.64962 3.02175 7.64962 2.55C7.64962 2.07825 8.03212 1.70001 8.4996 1.70001ZM6.79963 13.6L3.39961 10.2L4.60237 8.99723L6.79963 11.1945L12.3969 5.59725L13.5996 6.80001L6.79963 13.6Z" fill="black" fill-opacity="0.2"/>
</svg>
