<svg width="17" height="17" viewBox="0 0 17 17" fill="none" xmlns="http://www.w3.org/2000/svg">
<g clip-path="url(#clip0)">
<path d="M8.3788 8.18898C9.50381 8.18898 10.478 7.78548 11.274 6.98939C12.0699 6.19342 12.4734 5.21951 12.4734 4.09436C12.4734 2.9696 12.0699 1.99556 11.2738 1.19933C10.4777 0.403496 9.50368 0 8.3788 0C7.25365 0 6.27974 0.403496 5.48377 1.19946C4.68781 1.99543 4.28418 2.96947 4.28418 4.09436C4.28418 5.21951 4.68781 6.19355 5.4839 6.98952C6.28 7.78535 7.25404 8.18898 8.3788 8.18898Z" fill="black" fill-opacity="0.2"/>
<path d="M15.5433 13.0724C15.5204 12.7412 15.474 12.3798 15.4056 11.9982C15.3366 11.6138 15.2478 11.2504 15.1414 10.9182C15.0315 10.5749 14.8821 10.2359 14.6974 9.91098C14.5057 9.57376 14.2806 9.28012 14.0279 9.03849C13.7637 8.78571 13.4403 8.58247 13.0662 8.43422C12.6935 8.28675 12.2804 8.21204 11.8385 8.21204C11.6649 8.21204 11.4971 8.28325 11.173 8.49427C10.9735 8.62436 10.7402 8.77481 10.4797 8.94122C10.257 9.08311 9.95536 9.21605 9.58273 9.33641C9.21918 9.45405 8.85006 9.51371 8.48573 9.51371C8.12141 9.51371 7.75241 9.45405 7.38847 9.33641C7.01624 9.21618 6.71455 9.08324 6.49212 8.94135C6.23415 8.7765 6.00069 8.62605 5.79823 8.49414C5.47449 8.28312 5.30653 8.21191 5.133 8.21191C4.69098 8.21191 4.27802 8.28675 3.90539 8.43435C3.53159 8.58234 3.20799 8.78558 2.94353 9.03862C2.69101 9.28038 2.46572 9.57389 2.27428 9.91098C2.08972 10.2359 1.94031 10.5748 1.83032 10.9184C1.7241 11.2505 1.63525 11.6138 1.56625 11.9982C1.4979 12.3793 1.45147 12.7408 1.42851 13.0728C1.40594 13.3981 1.39453 13.7357 1.39453 14.0767C1.39453 14.9641 1.67663 15.6825 2.23291 16.2123C2.78232 16.7351 3.50928 17.0004 4.39332 17.0004H12.5789C13.463 17.0004 14.1897 16.7353 14.7392 16.2123C15.2956 15.6829 15.5777 14.9643 15.5777 14.0765C15.5776 13.734 15.566 13.3961 15.5433 13.0724Z" fill="black" fill-opacity="0.2"/>
</g>
<defs>
<clipPath id="clip0">
<rect width="17" height="17.0001" fill="white"/>
</clipPath>
</defs>
</svg>
