<svg width="32" height="32" viewBox="0 0 32 32" fill="none" xmlns="http://www.w3.org/2000/svg">
<g clip-path="url(#clip0)">
<path d="M15.7719 15.4145C17.8896 15.4145 19.7233 14.655 21.2216 13.1564C22.7199 11.6582 23.4794 9.82491 23.4794 7.707C23.4794 5.58982 22.7199 3.75633 21.2214 2.25756C19.7229 0.759519 17.8894 0 15.7719 0C13.654 0 11.8208 0.759519 10.3225 2.2578C8.82422 3.75609 8.06445 5.58958 8.06445 7.707C8.06445 9.82491 8.82422 11.6584 10.3227 13.1567C11.8213 14.6547 13.6548 15.4145 15.7719 15.4145Z" fill="black" fill-opacity="0.2"/>
<path d="M29.2579 24.6062C29.2147 23.9826 29.1273 23.3025 28.9987 22.5842C28.8688 21.8606 28.7016 21.1765 28.5014 20.5512C28.2946 19.905 28.0133 19.2668 27.6657 18.6553C27.3048 18.0205 26.881 17.4678 26.4054 17.0129C25.9081 16.5371 25.2992 16.1545 24.5951 15.8755C23.8935 15.5979 23.1159 15.4573 22.2841 15.4573C21.9574 15.4573 21.6415 15.5913 21.0314 15.9885C20.6559 16.2334 20.2167 16.5166 19.7265 16.8298C19.3073 17.0969 18.7394 17.3472 18.038 17.5737C17.3537 17.7952 16.6589 17.9075 15.9731 17.9075C15.2873 17.9075 14.5927 17.7952 13.9077 17.5737C13.207 17.3474 12.6391 17.0972 12.2204 16.8301C11.7348 16.5198 11.2954 16.2366 10.9143 15.9883C10.3049 15.5911 9.98874 15.457 9.66208 15.457C8.83005 15.457 8.05271 15.5979 7.3513 15.8757C6.64769 16.1543 6.03856 16.5369 5.54076 17.0132C5.06542 17.4683 4.64135 18.0207 4.281 18.6553C3.93359 19.2668 3.65234 19.9048 3.44531 20.5515C3.24536 21.1767 3.07812 21.8606 2.94824 22.5842C2.81958 23.3015 2.73218 23.9819 2.68896 24.6069C2.64648 25.2192 2.625 25.8547 2.625 26.4965C2.625 28.1669 3.156 29.5192 4.20312 30.5165C5.23729 31.5007 6.6057 31.9999 8.26975 31.9999H23.6779C25.3419 31.9999 26.7099 31.5009 27.7443 30.5165C28.7916 29.52 29.3226 28.1674 29.3226 26.4963C29.3224 25.8515 29.3007 25.2155 29.2579 24.6062Z" fill="black" fill-opacity="0.2"/>
</g>
<defs>
<clipPath id="clip0">
<rect width="31.9999" height="32" fill="white"/>
</clipPath>
</defs>
</svg>
