<svg width="1920" height="446" viewBox="0 0 1920 446" fill="none" xmlns="http://www.w3.org/2000/svg">
<path fill-rule="evenodd" clip-rule="evenodd" d="M1644.98 18.6411C1547.03 3.80162 1449.51 -5.09473 1353.34 9.68009C1257.18 24.8651 1162.29 63.5312 1067.57 106.945C1043.91 117.789 1020.26 128.932 996.598 140.076C925.587 173.528 854.524 207.004 783.032 232.533C592.385 300.612 398.568 311.408 301.712 316.804L204.841 322.2L204.729 320.203L301.579 314.808C398.43 309.413 591.999 298.626 782.359 230.649C853.751 205.156 924.688 171.74 995.676 138.299C1019.35 127.147 1043.03 115.992 1066.74 105.127C1161.48 61.7026 1256.58 22.9346 1353.03 7.70422L1353.03 7.70358C1449.51 -7.11862 1547.28 1.81564 1645.28 16.6637C1677.98 21.618 1710.7 27.2284 1743.41 32.8369C1808.77 44.0463 1874.09 55.2479 1939.15 61.188C2134.31 79.0062 2326.85 49.4292 2423.16 34.2218L2519.46 19.0142L2519.77 20.9897L2423.47 36.1973C2327.16 51.405 2134.4 81.0228 1938.97 63.1797C1873.84 57.2328 1808.38 46.0077 1742.96 34.7905C1710.27 29.1856 1677.6 23.5827 1644.98 18.6411Z" fill="#CFCFCF"/>
<path fill-rule="evenodd" clip-rule="evenodd" d="M1960.16 109.185C1862.21 94.3458 1764.69 85.4495 1668.52 100.224C1572.36 115.409 1477.47 154.075 1382.75 197.489C1359.09 208.334 1335.44 219.476 1311.78 230.621C1240.77 264.072 1169.7 297.548 1098.21 323.077C907.566 391.156 713.75 401.953 616.893 407.348L520.022 412.744L519.911 410.747L616.76 405.352C713.611 399.957 907.18 389.17 1097.54 321.194C1168.93 295.7 1239.87 262.284 1310.86 228.844C1334.53 217.691 1358.21 206.536 1381.92 195.671C1476.66 152.247 1571.76 113.479 1668.21 98.2484L1668.21 98.2478C1764.69 83.4256 1862.46 92.3598 1960.46 107.208C1993.16 112.162 2025.88 117.773 2058.59 123.381C2123.95 134.59 2189.28 145.792 2254.34 151.732C2449.49 169.55 2642.04 139.973 2738.34 124.766L2834.64 109.558L2834.95 111.534L2738.65 126.741C2642.35 141.949 2449.58 171.567 2254.15 153.724C2189.02 147.777 2123.56 136.552 2058.14 125.335C2025.45 119.73 1992.78 114.127 1960.16 109.185Z" fill="#CFCFCF"/>
<path fill-rule="evenodd" clip-rule="evenodd" d="M-40.8002 142.185C57.1485 127.346 154.674 118.449 250.846 133.224C347.005 148.409 441.892 187.075 536.612 230.489C560.273 241.334 583.926 252.476 607.584 263.621C678.595 297.072 749.658 330.548 821.15 356.077C1011.8 424.156 1205.61 434.953 1302.47 440.348L1399.34 445.744L1399.45 443.747L1302.6 438.352C1205.75 432.957 1012.18 422.17 821.823 354.194C750.431 328.7 679.494 295.284 608.506 261.844C584.831 250.691 561.151 239.536 537.446 228.671C442.703 185.247 347.604 146.479 251.156 131.248L251.152 131.248C154.673 116.426 56.9052 125.36 -41.0999 140.208C-73.8011 145.162 -106.518 150.773 -139.224 156.381C-204.591 167.59 -269.912 178.792 -334.973 184.732C-530.13 202.55 -722.673 172.973 -818.975 157.766L-915.278 142.558L-915.59 144.534L-819.287 159.741C-722.983 174.949 -530.221 204.567 -334.791 186.724C-269.655 180.777 -204.194 169.552 -138.778 158.335C-106.092 152.73 -73.4172 147.127 -40.8002 142.185Z" fill="#CFCFCF"/>
<path fill-rule="evenodd" clip-rule="evenodd" d="M603.2 53.1853C701.148 38.3458 798.674 29.4495 894.846 44.2243C991.005 59.4093 1085.89 98.0754 1180.61 141.489C1204.27 152.334 1227.93 163.476 1251.58 174.621C1322.6 208.072 1393.66 241.548 1465.15 267.077C1655.8 335.156 1849.61 345.953 1946.47 351.348L2043.34 356.744L2043.45 354.747L1946.6 349.352C1849.75 343.957 1656.18 333.17 1465.82 265.194C1394.43 239.7 1323.49 206.284 1252.51 172.844C1228.83 161.691 1205.15 150.536 1181.45 139.671C1086.7 96.2468 991.604 57.4788 895.156 42.2484L895.152 42.2478C798.673 27.4256 700.905 36.3598 602.9 51.2079C570.199 56.1622 537.482 61.7726 504.776 67.3811C439.409 78.5905 374.088 89.7921 309.027 95.7322C113.87 113.55 -78.6728 83.9734 -174.975 68.7659L-271.278 53.5584L-271.59 55.5339L-175.287 70.7415C-78.9829 85.9492 113.779 115.567 309.209 97.7239C374.345 91.7769 439.806 80.5519 505.222 69.3346C537.908 63.7298 570.583 58.1269 603.2 53.1853Z" fill="#CFCFCF"/>
<path fill-rule="evenodd" clip-rule="evenodd" d="M822.796 147.665C725.824 127.401 628.944 113.094 532.099 122.497C435.245 132.311 338.354 165.64 241.366 203.718C217.138 213.23 192.903 223.039 168.661 232.851C95.8993 262.301 23.0844 291.773 -49.7165 313.286C-243.855 370.657 -437.972 370.657 -534.979 370.657H-632V368.657H-535C-437.999 368.657 -244.13 368.653 -50.2833 311.368C22.4158 289.885 95.101 260.466 167.839 231.025C192.098 221.207 216.362 211.386 240.635 201.856C337.646 163.769 434.754 130.35 531.899 120.507L531.903 120.507C629.057 111.074 726.177 125.432 823.205 145.707C855.58 152.473 887.934 159.894 920.277 167.313C984.919 182.14 1049.52 196.958 1114.15 206.507C1308.01 235.152 1501.9 216.329 1598.9 206.502L1695.9 196.674L1696.1 198.663L1599.1 208.491C1502.1 218.319 1307.99 237.17 1113.85 208.486C1049.15 198.925 984.414 184.077 919.723 169.239C887.4 161.825 855.087 154.413 822.796 147.665Z" fill="#CFCFCF"/>
</svg>
